<svg width="40" height="40" viewBox="0 0 40 40" fill="none" xmlns="http://www.w3.org/2000/svg">
<path d="M20.0001 35.4161C23.3491 35.4154 26.6067 34.3242 29.2804 32.3075C31.9541 30.2908 33.8984 27.4583 34.8192 24.2384C35.74 21.0185 35.5873 17.5863 34.3842 14.4609C33.1811 11.3355 30.9929 8.68691 28.1507 6.91562C25.3085 5.14433 21.9668 4.34671 18.631 4.6434C15.2952 4.94008 12.1467 6.31493 9.66171 8.56002C7.17672 10.8051 5.49037 13.7983 4.85769 17.087C4.22502 20.3757 4.68044 23.7809 6.15508 26.7878C6.33508 27.1544 6.39508 27.5678 6.30341 27.9644L4.94341 33.8578C4.90507 34.0232 4.90947 34.1956 4.95619 34.3588C5.00291 34.522 5.09042 34.6707 5.21047 34.7907C5.33052 34.9108 5.47916 34.9983 5.64238 35.045C5.8056 35.0917 5.97802 35.0961 6.14341 35.0578L12.0351 33.6961C12.4329 33.609 12.8485 33.662 13.2117 33.8461C15.3241 34.8834 17.6468 35.4206 20.0001 35.4161Z" stroke="black" stroke-width="2.5" stroke-linecap="round" stroke-linejoin="round"/>
<path d="M15.5017 16.1812C15.5016 15.4674 15.6714 14.7639 15.997 14.1287C16.3226 13.4936 16.7946 12.945 17.3741 12.5284C17.9537 12.1117 18.624 11.8389 19.3298 11.7326C20.0356 11.6262 20.7565 11.6894 21.4331 11.9167C22.1096 12.1441 22.7224 12.5292 23.2207 13.0403C23.719 13.5513 24.0885 14.1735 24.2988 14.8556C24.509 15.5377 24.554 16.26 24.4299 16.9629C24.3057 17.6657 24.0162 18.329 23.585 18.8978C23.4173 19.0838 23.2393 19.2602 23.0517 19.4262C22.8984 19.5562 22.8234 19.6095 22.6734 19.7112L21.0417 20.8362C20.6383 21.1137 20.3085 21.4853 20.0809 21.9189C19.8532 22.3524 19.7345 22.8348 19.735 23.3245" stroke="black" stroke-width="2.5" stroke-linecap="round" stroke-linejoin="round"/>
<path d="M19.7135 29.5665C20.634 29.5665 21.3802 28.8203 21.3802 27.8998C21.3802 26.9793 20.634 26.2332 19.7135 26.2332C18.7931 26.2332 18.0469 26.9793 18.0469 27.8998C18.0469 28.8203 18.7931 29.5665 19.7135 29.5665Z" fill="black"/>
</svg>
