<svg width="40" height="40" viewBox="0 0 40 40" fill="none" xmlns="http://www.w3.org/2000/svg">
<path d="M22.4423 8.01623L24.9264 12.9844C25.2651 13.676 26.1684 14.3394 26.9306 14.4664L31.433 15.2144C34.3123 15.6943 34.9898 17.7832 32.915 19.8439L29.4147 23.3442C28.8219 23.937 28.4973 25.0802 28.6808 25.8988L29.6829 30.2319C30.4733 33.6616 28.6525 34.9883 25.618 33.1959L21.3979 30.6976C20.6357 30.246 19.3795 30.246 18.6033 30.6976L14.3831 33.1959C11.3627 34.9883 9.52788 33.6475 10.3183 30.2319L11.3204 25.8988C11.5039 25.0802 11.1792 23.937 10.5864 23.3442L7.08613 19.8439C5.02547 17.7832 5.68884 15.6943 8.56812 15.2144L13.0705 14.4664C13.8186 14.3394 14.7219 13.676 15.0606 12.9844L17.5447 8.01623C18.8997 5.32043 21.1015 5.32043 22.4423 8.01623Z" stroke="#292D32" stroke-width="2.54054" stroke-linecap="round" stroke-linejoin="round"/>
</svg>
