<svg width="162" height="48" viewBox="0 0 162 48" fill="none" xmlns="http://www.w3.org/2000/svg">
<path fill-rule="evenodd" clip-rule="evenodd" d="M0.0612793 6.85718H20.3783L24.8355 4.76837e-06H30.6419L26.1847 6.85718L20.5774 15.4839L18.0613 19.3548H23.6742L31.7976 6.85718H161.939V42.1225H13.172L9.3516 48H3.54515L7.51249 42.1225H0.0612793V6.85718Z" fill="url(#paint0_linear_1382_3846)"/>
<rect x="36.5511" y="8.08167" width="124.163" height="33.0612" fill="white"/>
<path d="M17.1521 20.3428L12.9125 14.3377H7.09571L14.1294 24.3827L6.64191 34.9639H12.4587L16.9928 28.3961L21.6166 34.9639H27.4747L17.1521 20.3428Z" fill="white"/>
<path d="M55.4585 18.2797H51.7825L49.6754 21.451H53.2399L55.4585 18.2797Z" fill="#E03A3A"/>
<path d="M49.2876 22.0347L46.6365 18.2797H42.9993L47.3975 24.5609L42.7155 31.1774H46.3528L49.188 27.0705L52.0793 31.1774H55.7424L49.2876 22.0347Z" fill="#303030"/>
<path d="M66.216 18.2603H69.3244V25.999C69.3244 29.2106 67.4413 31.4031 63.5074 31.4031C59.5737 31.4031 57.6776 29.1977 57.6776 26.0247V18.2733H60.7731V25.9345C60.7731 27.6628 61.7791 28.6559 63.5074 28.6559C65.2228 28.6559 66.216 27.6628 66.216 25.9345V18.2733L66.216 18.2603Z" fill="#303030"/>
<path d="M81.5342 18.2797V21.0011H77.9358V31.1775H74.8662V21.0011H71.2418V18.2797H81.5342Z" fill="#303030"/>
<path d="M95.0914 18.2797V31.1774H92.0217V26.0698H86.5403V31.1774H83.4835V18.2797H86.5403V23.3485H92.0217V18.2797H95.0914Z" fill="#303030"/>
<path d="M110.359 24.7092C110.359 28.3979 107.38 31.3904 103.691 31.3904C100.002 31.3904 97.0099 28.3979 97.0099 24.7092C97.0099 21.0204 100.002 18.0282 103.691 18.0282C107.38 18.0282 110.359 21.0075 110.359 24.7092ZM107.289 24.6962C107.289 22.71 105.677 21.0978 103.691 21.0978C101.705 21.0978 100.092 22.71 100.092 24.6962C100.092 26.6826 101.705 28.2948 103.691 28.2948C105.677 28.2948 107.289 26.6826 107.289 24.6962Z" fill="#303030"/>
<path d="M122.721 31.171H119.213L116.853 26.9019H115.331V31.1581H112.274V18.2603H118.31C120.993 18.2603 122.644 20.0273 122.644 22.4263C122.644 24.7093 121.212 25.9345 119.819 26.2569L122.721 31.171ZM115.331 23.858H117.898C118.878 23.858 119.523 23.2904 119.523 22.4263C119.523 21.5621 118.891 20.9947 117.898 20.9947H115.331V23.858Z" fill="#303030"/>
<path d="M124.667 18.2797H127.724V31.1774H124.667V18.2797Z" fill="#303030"/>
<path d="M139.947 18.2797V21.0011H136.349V31.1775H133.279V21.0011H129.655V18.2797H139.947Z" fill="#303030"/>
<path d="M154.536 18.2797L149.764 25.6572V31.1774H146.707V25.6572L141.896 18.2797H145.392L148.229 22.8713L151.041 18.2797H154.536Z" fill="#303030"/>
<defs>
<linearGradient id="paint0_linear_1382_3846" x1="85.1818" y1="57.5384" x2="85.5819" y2="-6.87103" gradientUnits="userSpaceOnUse">
<stop stop-color="#E91515"/>
<stop offset="0.2" stop-color="#B92929"/>
<stop offset="0.4" stop-color="#D03939"/>
<stop offset="0.61" stop-color="#E03A3A"/>
<stop offset="0.81" stop-color="#F13F3F"/>
<stop offset="1" stop-color="#F04646"/>
</linearGradient>
</defs>
</svg>
