<svg width="40" height="40" viewBox="0 0 40 40" fill="none" xmlns="http://www.w3.org/2000/svg">
<path d="M21.5334 3.76689L32.3834 9.61689C33.6501 10.3002 33.6501 12.2502 32.3834 12.9336L21.5334 18.7836C20.5667 19.3002 19.4334 19.3002 18.4667 18.7836L7.61675 12.9336C6.35008 12.2502 6.35008 10.3002 7.61675 9.61689L18.4667 3.76689C19.4334 3.25023 20.5667 3.25023 21.5334 3.76689Z" stroke="#1D1D1F" stroke-width="2.5" stroke-linecap="round" stroke-linejoin="round"/>
<path d="M6.01659 16.8832L16.0999 21.9332C17.3499 22.5665 18.1499 23.8499 18.1499 25.2499V34.7832C18.1499 36.1665 16.6999 37.0499 15.4666 36.4332L5.38325 31.3832C4.13325 30.7499 3.33325 29.4665 3.33325 28.0665V18.5332C3.33325 17.1499 4.78325 16.2665 6.01659 16.8832Z" stroke="#1D1D1F" stroke-width="2.5" stroke-linecap="round" stroke-linejoin="round"/>
<path d="M33.9834 16.8832L23.9001 21.9332C22.6501 22.5665 21.8501 23.8499 21.8501 25.2499V34.7832C21.8501 36.1665 23.3001 37.0499 24.5334 36.4332L34.6168 31.3832C35.8668 30.7499 36.6668 29.4665 36.6668 28.0665V18.5332C36.6668 17.1499 35.2168 16.2665 33.9834 16.8832Z" stroke="#1D1D1F" stroke-width="2.5" stroke-linecap="round" stroke-linejoin="round"/>
</svg>
