<svg width="1440" height="800" viewBox="0 0 1440 800" fill="none" xmlns="http://www.w3.org/2000/svg">
<rect width="1440" height="800" fill="url(#paint0_linear_415_983)"/>
<mask id="mask0_415_983" style="mask-type:luminance" maskUnits="userSpaceOnUse" x="0" y="0" width="1440" height="800">
<rect width="1440" height="800" fill="white"/>
</mask>
<g mask="url(#mask0_415_983)">
<g opacity="0.8">
<path d="M296.601 2.65474C295.285 0.990926 292.757 0.54826 290.954 1.66601C289.152 2.78376 288.757 5.03867 290.073 6.70248L423.015 174.823C424.331 176.487 426.859 176.929 428.662 175.812C430.464 174.694 430.859 172.439 429.544 170.775L296.601 2.65474Z" fill="url(#paint1_linear_415_983)"/>
<path d="M665.957 -13.9767C664.97 -15.2245 663.074 -15.5565 661.722 -14.7182C660.37 -13.8799 660.074 -12.1887 661.061 -10.9409L760.911 115.33C761.897 116.578 763.793 116.91 765.146 116.072C766.498 115.233 766.794 113.542 765.807 112.294L665.957 -13.9767Z" fill="url(#paint2_linear_415_983)"/>
<path d="M971.148 129.175C969.668 127.304 966.824 126.806 964.796 128.063C962.768 129.321 962.324 131.857 963.804 133.729L998.442 177.533C999.922 179.404 1002.77 179.902 1004.79 178.645C1006.82 177.387 1007.27 174.851 1005.79 172.979L971.148 129.175Z" fill="url(#paint3_linear_415_983)"/>
<path d="M338.04 -5.82103C333.106 -12.0603 323.626 -13.7203 316.866 -9.52877C310.106 -5.3372 308.625 3.1187 313.559 9.358L524.252 275.802C529.185 282.041 538.665 283.701 545.426 279.51C552.186 275.318 553.667 266.862 548.733 260.623L338.04 -5.82103Z" fill="url(#paint4_linear_415_983)"/>
<path d="M382.046 -105.491C378.264 -110.274 370.996 -111.547 365.813 -108.334C360.63 -105.12 359.495 -98.6372 363.277 -93.8538L520.999 105.603C524.782 110.386 532.05 111.659 537.232 108.445C542.415 105.232 543.551 98.7488 539.768 93.9654L382.046 -105.491Z" fill="url(#paint5_linear_415_983)"/>
<path d="M1294.1 -82.2978C1290.97 -86.2493 1284.97 -87.3007 1280.69 -84.646C1276.41 -81.9913 1275.47 -76.6359 1278.59 -72.6844L1495.84 202.044C1498.96 205.996 1504.97 207.047 1509.25 204.392C1513.53 201.738 1514.47 196.382 1511.34 192.431L1294.1 -82.2978Z" fill="url(#paint6_linear_415_983)"/>
<path d="M1030.1 547.541C1026.98 543.589 1020.98 542.538 1016.69 545.193C1012.41 547.847 1011.48 553.203 1014.6 557.154L1231.84 831.883C1234.97 835.835 1240.97 836.886 1245.25 834.231C1249.54 831.577 1250.47 826.221 1247.35 822.27L1030.1 547.541Z" fill="url(#paint7_linear_415_983)"/>
<path d="M622.814 487.49C622 486.498 620.466 486.257 619.387 486.951C618.309 487.645 618.094 489.011 618.907 490.003L757.079 658.403C757.893 659.395 759.427 659.636 760.506 658.942C761.584 658.248 761.799 656.881 760.986 655.89L622.814 487.49Z" fill="url(#paint8_linear_415_983)"/>
<path d="M952.557 616.28C951.743 615.289 950.209 615.047 949.13 615.741C948.052 616.435 947.837 617.802 948.65 618.793L1086.82 787.193C1087.64 788.185 1089.17 788.426 1090.25 787.732C1091.33 787.038 1091.54 785.672 1090.73 784.68L952.557 616.28Z" fill="url(#paint9_linear_415_983)"/>
<path d="M570.015 461.026C569.201 460.034 567.667 459.793 566.588 460.487C565.509 461.181 565.295 462.548 566.108 463.539L621.717 531.314C622.531 532.305 624.065 532.547 625.144 531.853C626.222 531.159 626.437 529.792 625.624 528.801L570.015 461.026Z" fill="url(#paint10_linear_415_983)"/>
<path d="M85.094 135.128C83.9442 133.727 81.7762 133.386 80.2517 134.366C78.7272 135.347 78.4235 137.278 79.5733 138.68L119.326 187.129C120.476 188.53 122.644 188.871 124.168 187.891C125.693 186.91 125.996 184.979 124.847 183.577L85.094 135.128Z" fill="url(#paint11_linear_415_983)"/>
<path d="M759.804 536.293C758.461 534.656 755.929 534.258 754.148 535.403C752.368 536.549 752.013 538.804 753.356 540.441L889.611 706.505C890.954 708.141 893.486 708.54 895.267 707.394C897.047 706.249 897.402 703.993 896.059 702.357L759.804 536.293Z" fill="url(#paint12_linear_415_983)"/>
<path d="M-12.7645 305.771C-13.5781 304.78 -15.1122 304.539 -16.1909 305.233C-17.2697 305.927 -17.4846 307.293 -16.671 308.285L121.501 476.685C122.315 477.676 123.849 477.918 124.928 477.224C126.006 476.53 126.221 475.163 125.408 474.172L-12.7645 305.771Z" fill="url(#paint13_linear_415_983)"/>
<path d="M-42.6812 308.421C-44.6955 305.966 -48.4934 305.369 -51.1641 307.087C-53.8348 308.805 -54.3668 312.188 -52.3525 314.643L81.4714 477.744C83.4857 480.199 87.2837 480.796 89.9543 479.078C92.625 477.36 93.1571 473.977 91.1428 471.522L-42.6812 308.421Z" fill="url(#paint14_linear_415_983)"/>
</g>
</g>
<defs>
<linearGradient id="paint0_linear_415_983" x1="1295.91" y1="3.08641e-05" x2="144.091" y2="800" gradientUnits="userSpaceOnUse">
<stop offset="0.725" stop-color="#FFF4CC"/>
<stop offset="1" stop-color="#FFE9A6"/>
</linearGradient>
<linearGradient id="paint1_linear_415_983" x1="292.563" y1="3.48788" x2="309.262" y2="-7.43258" gradientUnits="userSpaceOnUse">
<stop stop-color="#E91515"/>
<stop offset="0.425" stop-color="#FFD846"/>
</linearGradient>
<linearGradient id="paint2_linear_415_983" x1="662.93" y1="-13.3499" x2="675.453" y2="-21.5418" gradientUnits="userSpaceOnUse">
<stop stop-color="#E91515"/>
<stop offset="0.425" stop-color="#FFD846"/>
</linearGradient>
<linearGradient id="paint3_linear_415_983" x1="965.357" y1="128.534" x2="986.077" y2="121.584" gradientUnits="userSpaceOnUse">
<stop stop-color="#E91515"/>
<stop offset="0.425" stop-color="#FFD846"/>
</linearGradient>
<linearGradient id="paint4_linear_415_983" x1="319.772" y1="-6.65112" x2="386.382" y2="-40.1158" gradientUnits="userSpaceOnUse">
<stop stop-color="#E91515"/>
<stop offset="0.425" stop-color="#FFD846"/>
</linearGradient>
<linearGradient id="paint5_linear_415_983" x1="367.999" y1="-106.18" x2="419.161" y2="-131.595" gradientUnits="userSpaceOnUse">
<stop stop-color="#E6B400"/>
<stop offset="0.425" stop-color="#FFD846"/>
</linearGradient>
<linearGradient id="paint6_linear_415_983" x1="1283.44" y1="-81.6722" x2="1324.08" y2="-106.049" gradientUnits="userSpaceOnUse">
<stop stop-color="#E91515"/>
<stop offset="0.425" stop-color="#FFD846"/>
</linearGradient>
<linearGradient id="paint7_linear_415_983" x1="1019.45" y1="548.167" x2="1060.09" y2="523.79" gradientUnits="userSpaceOnUse">
<stop stop-color="#E91515"/>
<stop offset="0.425" stop-color="#FFD846"/>
</linearGradient>
<linearGradient id="paint8_linear_415_983" x1="620.988" y1="488.776" x2="630.7" y2="481.65" gradientUnits="userSpaceOnUse">
<stop stop-color="#E91515"/>
<stop offset="0.425" stop-color="#FFD846"/>
</linearGradient>
<linearGradient id="paint9_linear_415_983" x1="950.731" y1="617.566" x2="960.443" y2="610.44" gradientUnits="userSpaceOnUse">
<stop stop-color="#E91515"/>
<stop offset="0.425" stop-color="#FFD846"/>
</linearGradient>
<linearGradient id="paint10_linear_415_983" x1="567.292" y1="461.219" x2="577.541" y2="454.848" gradientUnits="userSpaceOnUse">
<stop stop-color="#E91515"/>
<stop offset="0.425" stop-color="#FFD846"/>
</linearGradient>
<linearGradient id="paint11_linear_415_983" x1="80.8242" y1="134.887" x2="96.1191" y2="127.675" gradientUnits="userSpaceOnUse">
<stop stop-color="#E91515"/>
<stop offset="0.425" stop-color="#FFD846"/>
</linearGradient>
<linearGradient id="paint12_linear_415_983" x1="755.793" y1="537.2" x2="772.255" y2="525.996" gradientUnits="userSpaceOnUse">
<stop stop-color="#E91515"/>
<stop offset="0.425" stop-color="#FFD846"/>
</linearGradient>
<linearGradient id="paint13_linear_415_983" x1="-14.5904" y1="307.058" x2="-4.87799" y2="299.931" gradientUnits="userSpaceOnUse">
<stop stop-color="#E91515"/>
<stop offset="0.425" stop-color="#FFD846"/>
</linearGradient>
<linearGradient id="paint14_linear_415_983" x1="-49.4639" y1="308.848" x2="-24.0354" y2="293.168" gradientUnits="userSpaceOnUse">
<stop stop-color="#E91515"/>
<stop offset="0.425" stop-color="#FFD846"/>
</linearGradient>
</defs>
</svg>
